<svg width="24" height="24" viewBox="0 0 24 24" fill="none" xmlns="http://www.w3.org/2000/svg">
<path d="M14 17H19L17.595 15.595C17.4063 15.4063 17.2567 15.1822 17.1546 14.9357C17.0525 14.6891 17 14.4249 17 14.158V11C17.0002 9.75894 16.6156 8.54834 15.8992 7.53489C15.1829 6.52144 14.17 5.75496 13 5.341V5C13 4.46957 12.7893 3.96086 12.4142 3.58579C12.0391 3.21071 11.5304 3 11 3C10.4696 3 9.96086 3.21071 9.58579 3.58579C9.21071 3.96086 9 4.46957 9 5V5.341C6.67 6.165 5 8.388 5 11V14.159C5 14.697 4.786 15.214 4.405 15.595L3 17H8M14 17V18C14 18.7956 13.6839 19.5587 13.1213 20.1213C12.5587 20.6839 11.7956 21 11 21C10.2044 21 9.44129 20.6839 8.87868 20.1213C8.31607 19.5587 8 18.7956 8 18V17M14 17H8" stroke="#955E42" stroke-width="2" stroke-linecap="round" stroke-linejoin="round"/>
</svg>
