<svg width="17" height="17" viewBox="0 0 17 17" fill="none" xmlns="http://www.w3.org/2000/svg">
<path fill-rule="evenodd" clip-rule="evenodd" d="M0.795653 0.877041C1.04881 0.620396 1.39213 0.476221 1.7501 0.476221C2.10807 0.476221 2.45139 0.620396 2.70455 0.877041L8.5001 6.75408L14.2957 0.877041C14.4202 0.746289 14.5691 0.641997 14.7339 0.57025C14.8986 0.498503 15.0757 0.460738 15.255 0.459158C15.4342 0.457579 15.612 0.492216 15.7779 0.56105C15.9438 0.629883 16.0945 0.731534 16.2213 0.860072C16.348 0.988609 16.4483 1.14146 16.5162 1.3097C16.584 1.47795 16.6182 1.65821 16.6166 1.83999C16.6151 2.02176 16.5778 2.2014 16.5071 2.36842C16.4363 2.53544 16.3335 2.6865 16.2046 2.81278L10.409 8.68983L16.2046 14.5669C16.4505 14.8251 16.5865 15.1709 16.5835 15.5298C16.5804 15.8888 16.4384 16.2321 16.1881 16.4859C15.9378 16.7398 15.5992 16.8837 15.2452 16.8868C14.8913 16.89 14.5503 16.752 14.2957 16.5026L8.5001 10.6256L2.70455 16.5026C2.44994 16.752 2.10893 16.89 1.75496 16.8868C1.40099 16.8837 1.0624 16.7398 0.812097 16.4859C0.561796 16.2321 0.419818 15.8888 0.416742 15.5298C0.413666 15.1709 0.549739 14.8251 0.795653 14.5669L6.5912 8.68983L0.795653 2.81278C0.542567 2.55606 0.400391 2.20792 0.400391 1.84491C0.400391 1.48191 0.542567 1.13376 0.795653 0.877041Z" fill="#505153"/>
</svg>
