<svg preserveAspectRatio="none" width="27" height="29" viewBox="0 0 27 29" fill="none" xmlns="http://www.w3.org/2000/svg">
<path d="M14.4766 19.0819H13.363V14.4243H12.2494M13.363 9.76661H13.3741M23.3852 14.4243C23.3852 15.8005 23.126 17.1632 22.6223 18.4347C22.1187 19.7061 21.3804 20.8614 20.4498 21.8346C19.5191 22.8077 18.4143 23.5796 17.1983 24.1063C15.9824 24.6329 14.6791 24.904 13.363 24.904C12.0469 24.904 10.7436 24.6329 9.52765 24.1063C8.3117 23.5796 7.20686 22.8077 6.27621 21.8346C5.34555 20.8614 4.60732 19.7061 4.10366 18.4347C3.59999 17.1632 3.34076 15.8005 3.34076 14.4243C3.34076 11.6449 4.39667 8.97931 6.27621 7.01398C8.15574 5.04865 10.7049 3.94454 13.363 3.94454C16.0211 3.94454 18.5703 5.04865 20.4498 7.01398C22.3293 8.97931 23.3852 11.6449 23.3852 14.4243Z" stroke="#BBBBBB" stroke-width="2" stroke-linecap="round" stroke-linejoin="round"/>
</svg>
