<svg width="29" height="25" viewBox="0 0 29 25" fill="none" xmlns="http://www.w3.org/2000/svg">
<path d="M21.0445 23.3568H27.726V20.5622C27.7259 19.691 27.4663 18.8415 26.9832 18.1317C26.5001 17.422 25.8175 16.8873 25.0303 16.6019C24.2432 16.3165 23.3905 16.2946 22.5909 16.5394C21.7913 16.7841 21.0845 17.2832 20.5688 17.9674M21.0445 23.3568H7.68149M21.0445 23.3568V20.5622C21.0445 19.6455 20.8761 18.7694 20.5688 17.9674M20.5688 17.9674C20.0725 16.6706 19.2161 15.5591 18.11 14.7761C17.0038 13.9932 15.6987 13.5747 14.363 13.5747C13.0272 13.5747 11.7221 13.9932 10.616 14.7761C9.50988 15.5591 8.65346 16.6706 8.15722 17.9674M7.68149 23.3568H1V20.5622C1.00006 19.691 1.25969 18.8415 1.7428 18.1317C2.2259 17.422 2.90848 16.8873 3.69565 16.6019C4.48282 16.3165 5.33546 16.2946 6.13505 16.5394C6.93464 16.7841 7.64144 17.2832 8.15722 17.9674M7.68149 23.3568V20.5622C7.68149 19.6455 7.84987 18.7694 8.15722 17.9674M18.3719 5.19189C18.3719 6.30365 17.9495 7.36988 17.1977 8.15601C16.4459 8.94214 15.4262 9.38378 14.363 9.38378C13.2998 9.38378 12.2801 8.94214 11.5283 8.15601C10.7765 7.36988 10.3541 6.30365 10.3541 5.19189C10.3541 4.08013 10.7765 3.01391 11.5283 2.22778C12.2801 1.44164 13.2998 1 14.363 1C15.4262 1 16.4459 1.44164 17.1977 2.22778C17.9495 3.01391 18.3719 4.08013 18.3719 5.19189ZM26.3897 9.38378C26.3897 10.125 26.1081 10.8358 25.6069 11.3599C25.1057 11.8839 24.4259 12.1784 23.7171 12.1784C23.0083 12.1784 22.3285 11.8839 21.8273 11.3599C21.3261 10.8358 21.0445 10.125 21.0445 9.38378C21.0445 8.64261 21.3261 7.9318 21.8273 7.40771C22.3285 6.88362 23.0083 6.58919 23.7171 6.58919C24.4259 6.58919 25.1057 6.88362 25.6069 7.40771C26.1081 7.9318 26.3897 8.64261 26.3897 9.38378ZM7.68149 9.38378C7.68149 10.125 7.39992 10.8358 6.89871 11.3599C6.3975 11.8839 5.71771 12.1784 5.0089 12.1784C4.30008 12.1784 3.62029 11.8839 3.11908 11.3599C2.61788 10.8358 2.3363 10.125 2.3363 9.38378C2.3363 8.64261 2.61788 7.9318 3.11908 7.40771C3.62029 6.88362 4.30008 6.58919 5.0089 6.58919C5.71771 6.58919 6.3975 6.88362 6.89871 7.40771C7.39992 7.9318 7.68149 8.64261 7.68149 9.38378Z" stroke="#D9D9D9" stroke-width="2" stroke-linecap="round" stroke-linejoin="round"/>
</svg>
