<svg preserveAspectRatio="none" width="25" height="25" viewBox="0 0 25 25" fill="none" xmlns="http://www.w3.org/2000/svg">
<path d="M12.7153 15.6587V17.6587M6.71533 21.6587H18.7153C19.2458 21.6587 19.7545 21.448 20.1295 21.0729C20.5046 20.6978 20.7153 20.1891 20.7153 19.6587V13.6587C20.7153 13.1283 20.5046 12.6196 20.1295 12.2445C19.7545 11.8694 19.2458 11.6587 18.7153 11.6587H6.71533C6.1849 11.6587 5.67619 11.8694 5.30112 12.2445C4.92605 12.6196 4.71533 13.1283 4.71533 13.6587V19.6587C4.71533 20.1891 4.92605 20.6978 5.30112 21.0729C5.67619 21.448 6.1849 21.6587 6.71533 21.6587ZM16.7153 11.6587V7.65869C16.7153 6.59783 16.2939 5.58041 15.5438 4.83026C14.7936 4.08012 13.7762 3.65869 12.7153 3.65869C11.6545 3.65869 10.6371 4.08012 9.8869 4.83026C9.13676 5.58041 8.71533 6.59783 8.71533 7.65869V11.6587H16.7153Z" stroke="black" stroke-width="2" stroke-linecap="round" stroke-linejoin="round"/>
</svg>
