<svg preserveAspectRatio="none" width="38" height="38" viewBox="0 0 38 38" fill="none" xmlns="http://www.w3.org/2000/svg">
<circle cx="19" cy="19" r="19" fill="#D9D9D9"/>
<path d="M18.7778 23.5L13.8889 18M13.8889 18L18.7778 12.5M13.8889 18H31M24.8889 23.5V24.875C24.8889 25.969 24.5026 27.0182 23.8149 27.7918C23.1273 28.5654 22.1947 29 21.2222 29H12.6667C11.6942 29 10.7616 28.5654 10.0739 27.7918C9.38631 27.0182 9 25.969 9 24.875V11.125C9 10.031 9.38631 8.98177 10.0739 8.20818C10.7616 7.4346 11.6942 7 12.6667 7H21.2222C22.1947 7 23.1273 7.4346 23.8149 8.20818C24.5026 8.98177 24.8889 10.031 24.8889 11.125V12.5" stroke="#AEAEAE" stroke-width="2" stroke-linecap="round" stroke-linejoin="round"/>
</svg>
