<svg preserveAspectRatio="none" width="16" height="16" viewBox="0 0 16 16" fill="none" xmlns="http://www.w3.org/2000/svg">
<path d="M10.1147 4.66667L5.72399 9.05734C5.59665 9.18034 5.49507 9.32746 5.42519 9.49014C5.35531 9.65281 5.31853 9.82777 5.31699 10.0048C5.31545 10.1818 5.34919 10.3574 5.41623 10.5213C5.48327 10.6851 5.58228 10.834 5.70747 10.9592C5.83266 11.0844 5.98153 11.1834 6.14539 11.2504C6.30925 11.3175 6.48482 11.3512 6.66186 11.3497C6.8389 11.3481 7.01386 11.3114 7.17653 11.2415C7.3392 11.1716 7.48633 11.07 7.60933 10.9427L11.8853 6.55201C12.3711 6.04907 12.6399 5.37546 12.6338 4.67627C12.6277 3.97708 12.3473 3.30825 11.8528 2.81382C11.3584 2.3194 10.6896 2.03895 9.9904 2.03288C9.29121 2.0268 8.6176 2.29559 8.11466 2.78134L3.83799 7.17134C3.08778 7.92155 2.66632 8.93905 2.66632 10C2.66632 11.061 3.08778 12.0785 3.83799 12.8287C4.5882 13.5789 5.6057 14.0003 6.66666 14.0003C7.72762 14.0003 8.74512 13.5789 9.49533 12.8287L13.6667 8.66667" stroke="white" stroke-width="2" stroke-linecap="round" stroke-linejoin="round"/>
</svg>
