<svg preserveAspectRatio="none" width="38" height="38" viewBox="0 0 38 38" fill="none" xmlns="http://www.w3.org/2000/svg">
<path d="M25.3333 22.1667C24.0139 22.1667 22.8924 21.7049 21.9687 20.7813C21.0451 19.8576 20.5833 18.7361 20.5833 17.4167C20.5833 16.0972 21.0451 14.9757 21.9687 14.0521C22.8924 13.1285 24.0139 12.6667 25.3333 12.6667C26.6528 12.6667 27.7743 13.1285 28.6979 14.0521C29.6215 14.9757 30.0833 16.0972 30.0833 17.4167C30.0833 18.7361 29.6215 19.8576 28.6979 20.7813C27.7743 21.7049 26.6528 22.1667 25.3333 22.1667ZM17.4167 31.6667C16.9681 31.6667 16.592 31.5149 16.2885 31.2115C15.9851 30.908 15.8333 30.5319 15.8333 30.0833V28.6583C15.8333 28.1042 15.9653 27.5764 16.2292 27.075C16.4931 26.5736 16.8625 26.1778 17.3375 25.8875C18.525 25.175 19.7851 24.6406 21.1177 24.2844C22.4503 23.9281 23.8556 23.75 25.3333 23.75C26.8111 23.75 28.2163 23.9281 29.549 24.2844C30.8816 24.6406 32.1417 25.175 33.3292 25.8875C33.8042 26.1778 34.1736 26.5736 34.4375 27.075C34.7014 27.5764 34.8333 28.1042 34.8333 28.6583V30.0833C34.8333 30.5319 34.6816 30.908 34.3781 31.2115C34.0747 31.5149 33.6986 31.6667 33.25 31.6667H17.4167ZM15.8333 22.1667H6.33333C5.88472 22.1667 5.50868 22.0149 5.20521 21.7115C4.90174 21.408 4.75 21.0319 4.75 20.5833C4.75 20.1347 4.90174 19.7587 5.20521 19.4552C5.50868 19.1517 5.88472 19 6.33333 19H15.8333C16.2819 19 16.658 19.1517 16.9615 19.4552C17.2649 19.7587 17.4167 20.1347 17.4167 20.5833C17.4167 21.0319 17.2649 21.408 16.9615 21.7115C16.658 22.0149 16.2819 22.1667 15.8333 22.1667ZM22.1667 9.5H6.33333C5.88472 9.5 5.50868 9.34827 5.20521 9.04479C4.90174 8.74132 4.75 8.36528 4.75 7.91667C4.75 7.46806 4.90174 7.09202 5.20521 6.78854C5.50868 6.48507 5.88472 6.33334 6.33333 6.33334H22.1667C22.6153 6.33334 22.9913 6.48507 23.2948 6.78854C23.5983 7.09202 23.75 7.46806 23.75 7.91667C23.75 8.36528 23.5983 8.74132 23.2948 9.04479C22.9913 9.34827 22.6153 9.5 22.1667 9.5ZM17.575 15.8333H6.33333C5.88472 15.8333 5.50868 15.6816 5.20521 15.3781C4.90174 15.0747 4.75 14.6986 4.75 14.25C4.75 13.8014 4.90174 13.4253 5.20521 13.1219C5.50868 12.8184 5.88472 12.6667 6.33333 12.6667H19C18.6306 13.1153 18.3337 13.6035 18.1094 14.1313C17.8851 14.659 17.7069 15.2264 17.575 15.8333Z" fill="#955E42"/>
</svg>
