<svg width="19" height="23" viewBox="0 0 19 23" fill="none" xmlns="http://www.w3.org/2000/svg">
<path d="M5.66667 3.33333H3.33333C2.71449 3.33333 2.121 3.57917 1.68342 4.01675C1.24583 4.45434 1 5.04783 1 5.66667V19.6667C1 20.2855 1.24583 20.879 1.68342 21.3166C2.121 21.7542 2.71449 22 3.33333 22H15C15.6188 22 16.2123 21.7542 16.6499 21.3166C17.0875 20.879 17.3333 20.2855 17.3333 19.6667V5.66667C17.3333 5.04783 17.0875 4.45434 16.6499 4.01675C16.2123 3.57917 15.6188 3.33333 15 3.33333H12.6667M5.66667 3.33333C5.66667 3.95217 5.9125 4.54566 6.35008 4.98325C6.78767 5.42083 7.38116 5.66667 8 5.66667H10.3333C10.9522 5.66667 11.5457 5.42083 11.9832 4.98325C12.4208 4.54566 12.6667 3.95217 12.6667 3.33333M5.66667 3.33333C5.66667 2.71449 5.9125 2.121 6.35008 1.68342C6.78767 1.24583 7.38116 1 8 1H10.3333C10.9522 1 11.5457 1.24583 11.9832 1.68342C12.4208 2.121 12.6667 2.71449 12.6667 3.33333M9.16667 11.5H12.6667M9.16667 16.1667H12.6667M5.66667 11.5H5.67833M5.66667 16.1667H5.67833" stroke="#955E42" stroke-width="2" stroke-linecap="round" stroke-linejoin="round"/>
</svg>
