<svg preserveAspectRatio="none" width="38" height="38" viewBox="0 0 38 38" fill="none" xmlns="http://www.w3.org/2000/svg">
<circle cx="19" cy="19" r="19" fill="#D9D9D9"/>
<path d="M28 28L22 22M24 17C24 17.9193 23.8189 18.8295 23.4672 19.6788C23.1154 20.5281 22.5998 21.2997 21.9497 21.9497C21.2997 22.5998 20.5281 23.1154 19.6788 23.4672C18.8295 23.8189 17.9193 24 17 24C16.0807 24 15.1705 23.8189 14.3212 23.4672C13.4719 23.1154 12.7003 22.5998 12.0503 21.9497C11.4002 21.2997 10.8846 20.5281 10.5328 19.6788C10.1811 18.8295 10 17.9193 10 17C10 15.1435 10.7375 13.363 12.0503 12.0503C13.363 10.7375 15.1435 10 17 10C18.8565 10 20.637 10.7375 21.9497 12.0503C23.2625 13.363 24 15.1435 24 17Z" stroke="#AEAEAE" stroke-width="2" stroke-linecap="round" stroke-linejoin="round"/>
</svg>
