<svg preserveAspectRatio="none" width="26" height="22" viewBox="0 0 26 22" fill="none" xmlns="http://www.w3.org/2000/svg">
<path d="M11.6888 3.00748C12.0062 2.20316 13.3846 2.20316 13.7009 3.00748L15.3079 7.08933C15.377 7.26442 15.5115 7.41698 15.692 7.5252C15.8725 7.63343 16.0898 7.69178 16.3129 7.69191H21.5125C22.5376 7.69191 22.9629 8.77482 22.1345 9.27261L17.9283 11.7947C17.7476 11.9032 17.6132 12.056 17.5442 12.2314C17.4752 12.4068 17.4752 12.5957 17.5443 12.7711L19.1502 16.8529C19.4675 17.6581 18.3515 18.3271 17.5231 17.8293L13.3169 15.3072C13.1361 15.1987 12.9184 15.1403 12.6949 15.1403C12.4713 15.1403 12.2536 15.1987 12.0728 15.3072L7.86658 17.8293C7.03824 18.3271 5.92216 17.6573 6.23953 16.8529L7.84542 12.7711C7.91448 12.5957 7.91452 12.4068 7.84554 12.2314C7.77655 12.056 7.64209 11.9032 7.46141 11.7947L3.25518 9.27261C2.42579 8.77482 2.85318 7.69191 3.87723 7.69191H9.07577C9.29903 7.69196 9.5166 7.6337 9.69731 7.52546C9.87802 7.41722 10.0126 7.26456 10.0818 7.08933L11.6888 3.00748Z" stroke="#D9D9D9" stroke-width="2" stroke-linecap="round" stroke-linejoin="round"/>
</svg>
