<svg preserveAspectRatio="none" width="25" height="25" viewBox="0 0 25 25" fill="none" xmlns="http://www.w3.org/2000/svg">
<path d="M11.25 7.5C11.25 8.49456 10.8549 9.44839 10.1517 10.1517C9.44839 10.8549 8.49456 11.25 7.5 11.25C6.50544 11.25 5.55161 10.8549 4.84835 10.1517C4.14509 9.44839 3.75 8.49456 3.75 7.5C3.75 6.50544 4.14509 5.55161 4.84835 4.84835C5.55161 4.14509 6.50544 3.75 7.5 3.75C8.49456 3.75 9.44839 4.14509 10.1517 4.84835C10.8549 5.55161 11.25 6.50544 11.25 7.5ZM21.25 7.5C21.25 7.99246 21.153 8.48009 20.9645 8.93506C20.7761 9.39003 20.4999 9.80343 20.1517 10.1517C19.8034 10.4999 19.39 10.7761 18.9351 10.9645C18.4801 11.153 17.9925 11.25 17.5 11.25C17.0075 11.25 16.5199 11.153 16.0649 10.9645C15.61 10.7761 15.1966 10.4999 14.8483 10.1517C14.5001 9.80343 14.2239 9.39003 14.0355 8.93506C13.847 8.48009 13.75 7.99246 13.75 7.5C13.75 6.50544 14.1451 5.55161 14.8483 4.84835C15.5516 4.14509 16.5054 3.75 17.5 3.75C18.4946 3.75 19.4484 4.14509 20.1517 4.84835C20.8549 5.55161 21.25 6.50544 21.25 7.5ZM16.1625 21.25C16.22 20.8413 16.25 20.425 16.25 20C16.2529 18.0361 15.5922 16.1288 14.375 14.5875C15.3251 14.039 16.4029 13.7502 17.5 13.7502C18.5971 13.7502 19.6748 14.0389 20.6249 14.5875C21.575 15.136 22.364 15.925 22.9126 16.8751C23.4612 17.8252 23.75 18.9029 23.75 20V21.25H16.1625ZM7.5 13.75C9.1576 13.75 10.7473 14.4085 11.9194 15.5806C13.0915 16.7527 13.75 18.3424 13.75 20V21.25H1.25V20C1.25 18.3424 1.90848 16.7527 3.08058 15.5806C4.25269 14.4085 5.8424 13.75 7.5 13.75Z" fill="#955E42"/>
</svg>
