<svg preserveAspectRatio="none" width="26" height="28" viewBox="0 0 26 28" fill="none" xmlns="http://www.w3.org/2000/svg">
<path d="M17.4167 23.3333H22.8334V21C22.8334 20.2726 22.6229 19.5633 22.2312 18.9707C21.8396 18.3781 21.2862 17.9316 20.6481 17.6934C20.0099 17.4551 19.3187 17.4368 18.6704 17.6412C18.0222 17.8455 17.4492 18.2623 17.0311 18.8335M17.4167 23.3333H6.58341M17.4167 23.3333V21C17.4167 20.2347 17.2802 19.5032 17.0311 18.8335M17.0311 18.8335C16.6288 17.7508 15.9345 16.8227 15.0377 16.169C14.141 15.5152 13.083 15.1658 12.0001 15.1658C10.9172 15.1658 9.85915 15.5152 8.96242 16.169C8.06568 16.8227 7.37138 17.7508 6.96908 18.8335M6.58341 23.3333H1.16675V21C1.1668 20.2726 1.37728 19.5633 1.76893 18.9707C2.16058 18.3781 2.71395 17.9316 3.3521 17.6934C3.99026 17.4551 4.68149 17.4368 5.32971 17.6412C5.97794 17.8455 6.55095 18.2623 6.96908 18.8335M6.58341 23.3333V21C6.58341 20.2347 6.71991 19.5032 6.96908 18.8335M15.2501 8.16666C15.2501 9.09491 14.9077 9.98515 14.2982 10.6415C13.6887 11.2979 12.862 11.6667 12.0001 11.6667C11.1381 11.6667 10.3115 11.2979 9.70198 10.6415C9.09249 9.98515 8.75008 9.09491 8.75008 8.16666C8.75008 7.2384 9.09249 6.34816 9.70198 5.69178C10.3115 5.03541 11.1381 4.66666 12.0001 4.66666C12.862 4.66666 13.6887 5.03541 14.2982 5.69178C14.9077 6.34816 15.2501 7.2384 15.2501 8.16666ZM21.7501 11.6667C21.7501 12.2855 21.5218 12.879 21.1155 13.3166C20.7091 13.7542 20.158 14 19.5834 14C19.0088 14 18.4577 13.7542 18.0513 13.3166C17.645 12.879 17.4167 12.2855 17.4167 11.6667C17.4167 11.0478 17.645 10.4543 18.0513 10.0167C18.4577 9.57916 19.0088 9.33332 19.5834 9.33332C20.158 9.33332 20.7091 9.57916 21.1155 10.0167C21.5218 10.4543 21.7501 11.0478 21.7501 11.6667ZM6.58341 11.6667C6.58341 12.2855 6.35514 12.879 5.94881 13.3166C5.54248 13.7542 4.99138 14 4.41675 14C3.84211 14 3.29101 13.7542 2.88468 13.3166C2.47835 12.879 2.25008 12.2855 2.25008 11.6667C2.25008 11.0478 2.47835 10.4543 2.88468 10.0167C3.29101 9.57916 3.84211 9.33332 4.41675 9.33332C4.99138 9.33332 5.54248 9.57916 5.94881 10.0167C6.35514 10.4543 6.58341 11.0478 6.58341 11.6667Z" stroke="#955E42" stroke-width="2" stroke-linecap="round" stroke-linejoin="round"/>
</svg>
