<svg preserveAspectRatio="none" width="18" height="22" viewBox="0 0 18 22" fill="none" xmlns="http://www.w3.org/2000/svg">
<path d="M5.49992 2.83333H3.16659C2.54775 2.83333 1.95425 3.07917 1.51667 3.51675C1.07908 3.95434 0.833252 4.54783 0.833252 5.16667V19.1667C0.833252 19.7855 1.07908 20.379 1.51667 20.8166C1.95425 21.2542 2.54775 21.5 3.16659 21.5H14.8333C15.4521 21.5 16.0456 21.2542 16.4832 20.8166C16.9208 20.379 17.1666 19.7855 17.1666 19.1667V5.16667C17.1666 4.54783 16.9208 3.95434 16.4832 3.51675C16.0456 3.07917 15.4521 2.83333 14.8333 2.83333H12.4999M5.49992 2.83333C5.49992 3.45217 5.74575 4.04566 6.18334 4.48325C6.62092 4.92083 7.21441 5.16667 7.83325 5.16667H10.1666C10.7854 5.16667 11.3789 4.92083 11.8165 4.48325C12.2541 4.04566 12.4999 3.45217 12.4999 2.83333M5.49992 2.83333C5.49992 2.21449 5.74575 1.621 6.18334 1.18342C6.62092 0.745833 7.21441 0.5 7.83325 0.5H10.1666C10.7854 0.5 11.3789 0.745833 11.8165 1.18342C12.2541 1.621 12.4999 2.21449 12.4999 2.83333M8.99992 11H12.4999M8.99992 15.6667H12.4999M5.49992 11H5.51159M5.49992 15.6667H5.51159" stroke="#955E42" stroke-width="2" stroke-linecap="round" stroke-linejoin="round"/>
</svg>
