<svg preserveAspectRatio="none" width="17" height="21" viewBox="0 0 17 21" fill="none" xmlns="http://www.w3.org/2000/svg">
<path d="M4.66667 2.33333H2.33333C1.71449 2.33333 1.121 2.57917 0.683417 3.01675C0.245833 3.45434 0 4.04783 0 4.66667V18.6667C0 19.2855 0.245833 19.879 0.683417 20.3166C1.121 20.7542 1.71449 21 2.33333 21H14C14.6188 21 15.2123 20.7542 15.6499 20.3166C16.0875 19.879 16.3333 19.2855 16.3333 18.6667V4.66667C16.3333 4.04783 16.0875 3.45434 15.6499 3.01675C15.2123 2.57917 14.6188 2.33333 14 2.33333H11.6667M4.66667 2.33333C4.66667 2.95217 4.9125 3.54566 5.35008 3.98325C5.78767 4.42083 6.38116 4.66667 7 4.66667H9.33333C9.95217 4.66667 10.5457 4.42083 10.9832 3.98325C11.4208 3.54566 11.6667 2.95217 11.6667 2.33333M4.66667 2.33333C4.66667 1.71449 4.9125 1.121 5.35008 0.683417C5.78767 0.245833 6.38116 0 7 0H9.33333C9.95217 0 10.5457 0.245833 10.9832 0.683417C11.4208 1.121 11.6667 1.71449 11.6667 2.33333M8.16667 10.5H11.6667M8.16667 15.1667H11.6667M4.66667 10.5H4.67833M4.66667 15.1667H4.67833" stroke="#D9D9D9" stroke-width="2" stroke-linecap="round" stroke-linejoin="round"/>
</svg>
