<svg preserveAspectRatio="none" width="27" height="23" viewBox="0 0 27 23" fill="none" xmlns="http://www.w3.org/2000/svg">
<path d="M20.0445 22.3568H26.726V19.5622C26.7259 18.691 26.4663 17.8415 25.9832 17.1317C25.5001 16.422 24.8175 15.8873 24.0303 15.6019C23.2432 15.3165 22.3905 15.2946 21.5909 15.5394C20.7913 15.7841 20.0845 16.2832 19.5688 16.9674M20.0445 22.3568H6.68149M20.0445 22.3568V19.5622C20.0445 18.6455 19.8761 17.7694 19.5688 16.9674M19.5688 16.9674C19.0725 15.6706 18.2161 14.5591 17.11 13.7761C16.0038 12.9932 14.6987 12.5747 13.363 12.5747C12.0272 12.5747 10.7221 12.9932 9.61601 13.7761C8.50988 14.5591 7.65346 15.6706 7.15722 16.9674M6.68149 22.3568H0V19.5622C6.09347e-05 18.691 0.25969 17.8415 0.742797 17.1317C1.2259 16.422 1.90848 15.8873 2.69565 15.6019C3.48282 15.3165 4.33546 15.2946 5.13505 15.5394C5.93464 15.7841 6.64144 16.2832 7.15722 16.9674M6.68149 22.3568V19.5622C6.68149 18.6455 6.84987 17.7694 7.15722 16.9674M17.3719 4.19189C17.3719 5.30365 16.9495 6.36988 16.1977 7.15601C15.4459 7.94214 14.4262 8.38378 13.363 8.38378C12.2998 8.38378 11.2801 7.94214 10.5283 7.15601C9.77646 6.36988 9.35409 5.30365 9.35409 4.19189C9.35409 3.08013 9.77646 2.01391 10.5283 1.22778C11.2801 0.441645 12.2998 0 13.363 0C14.4262 0 15.4459 0.441645 16.1977 1.22778C16.9495 2.01391 17.3719 3.08013 17.3719 4.19189ZM25.3897 8.38378C25.3897 9.12496 25.1081 9.83577 24.6069 10.3599C24.1057 10.8839 23.4259 11.1784 22.7171 11.1784C22.0083 11.1784 21.3285 10.8839 20.8273 10.3599C20.3261 9.83577 20.0445 9.12496 20.0445 8.38378C20.0445 7.64261 20.3261 6.9318 20.8273 6.40771C21.3285 5.88362 22.0083 5.58919 22.7171 5.58919C23.4259 5.58919 24.1057 5.88362 24.6069 6.40771C25.1081 6.9318 25.3897 7.64261 25.3897 8.38378ZM6.68149 8.38378C6.68149 9.12496 6.39992 9.83577 5.89871 10.3599C5.3975 10.8839 4.71771 11.1784 4.0089 11.1784C3.30008 11.1784 2.62029 10.8839 2.11908 10.3599C1.61788 9.83577 1.3363 9.12496 1.3363 8.38378C1.3363 7.64261 1.61788 6.9318 2.11908 6.40771C2.62029 5.88362 3.30008 5.58919 4.0089 5.58919C4.71771 5.58919 5.3975 5.88362 5.89871 6.40771C6.39992 6.9318 6.68149 7.64261 6.68149 8.38378Z" stroke="#D9D9D9" stroke-width="2" stroke-linecap="round" stroke-linejoin="round"/>
</svg>
