<svg preserveAspectRatio="none" width="20" height="16" viewBox="0 0 20 16" fill="none" xmlns="http://www.w3.org/2000/svg">
<path d="M15 16H20V14C20 13.3765 19.8057 12.7686 19.4441 12.2606C19.0826 11.7527 18.5718 11.37 17.9827 11.1658C17.3937 10.9615 16.7556 10.9459 16.1573 11.121C15.5589 11.2962 15.03 11.6534 14.644 12.143M15 16H5M15 16V14C15 13.344 14.874 12.717 14.644 12.143M14.644 12.143C14.2726 11.215 13.6318 10.4195 12.804 9.85912C11.9762 9.29878 10.9996 8.9993 10 8.9993C9.00042 8.9993 8.02376 9.29878 7.196 9.85912C6.36825 10.4195 5.72736 11.215 5.356 12.143M5 16H0V14C4.55996e-05 13.3765 0.194336 12.7686 0.555861 12.2606C0.917387 11.7527 1.42819 11.37 2.01725 11.1658C2.60632 10.9615 3.24438 10.9459 3.84274 11.121C4.4411 11.2962 4.97003 11.6534 5.356 12.143M5 16V14C5 13.344 5.126 12.717 5.356 12.143M13 3C13 3.79565 12.6839 4.55871 12.1213 5.12132C11.5587 5.68393 10.7956 6 10 6C9.20435 6 8.44129 5.68393 7.87868 5.12132C7.31607 4.55871 7 3.79565 7 3C7 2.20435 7.31607 1.44129 7.87868 0.87868C8.44129 0.316071 9.20435 0 10 0C10.7956 0 11.5587 0.316071 12.1213 0.87868C12.6839 1.44129 13 2.20435 13 3ZM19 6C19 6.53043 18.7893 7.03914 18.4142 7.41421C18.0391 7.78929 17.5304 8 17 8C16.4696 8 15.9609 7.78929 15.5858 7.41421C15.2107 7.03914 15 6.53043 15 6C15 5.46957 15.2107 4.96086 15.5858 4.58579C15.9609 4.21071 16.4696 4 17 4C17.5304 4 18.0391 4.21071 18.4142 4.58579C18.7893 4.96086 19 5.46957 19 6ZM5 6C5 6.53043 4.78929 7.03914 4.41421 7.41421C4.03914 7.78929 3.53043 8 3 8C2.46957 8 1.96086 7.78929 1.58579 7.41421C1.21071 7.03914 1 6.53043 1 6C1 5.46957 1.21071 4.96086 1.58579 4.58579C1.96086 4.21071 2.46957 4 3 4C3.53043 4 4.03914 4.21071 4.41421 4.58579C4.78929 4.96086 5 5.46957 5 6Z" stroke="#D9D9D9" stroke-width="2" stroke-linecap="round" stroke-linejoin="round"/>
</svg>
