<svg width="30" height="30" viewBox="0 0 30 30" fill="none" xmlns="http://www.w3.org/2000/svg">
<path d="M2.41033 29.8362C1.83644 30.1026 1.29125 30.044 0.774749 29.6604C0.25825 29.2781 0 28.7206 0 27.988V20.545C0 20.0787 0.114778 19.6625 0.344333 19.2961C0.573888 18.9298 0.889527 18.6967 1.29125 18.5968L13.7733 15.0002L1.29125 11.4035C0.889527 11.3036 0.573888 11.0705 0.344333 10.7042C0.114778 10.3379 0 9.92161 0 9.45538V2.01238C0 1.27973 0.25825 0.721593 0.774749 0.337954C1.29125 -0.0443535 1.83644 -0.1023 2.41033 0.164117L28.924 13.1519C29.6413 13.5182 30 14.1343 30 15.0002C30 15.866 29.6413 16.4821 28.924 16.8484L2.41033 29.8362Z" fill="#955E42"/>
</svg>
