<svg preserveAspectRatio="none" width="27" height="28" viewBox="0 0 27 28" fill="none" xmlns="http://www.w3.org/2000/svg">
<path fill-rule="evenodd" clip-rule="evenodd" d="M5.79553 6.0102C6.04869 5.74774 6.39201 5.6003 6.74998 5.6003C7.10795 5.6003 7.45127 5.74774 7.70443 6.0102L13.5 12.0204L19.2955 6.0102C19.4201 5.87648 19.569 5.76983 19.7337 5.69646C19.8984 5.62308 20.0756 5.58446 20.2548 5.58285C20.4341 5.58123 20.6119 5.61665 20.7778 5.68705C20.9437 5.75744 21.0944 5.86139 21.2212 5.99284C21.3479 6.12429 21.4482 6.28061 21.516 6.45266C21.5839 6.62472 21.6181 6.80907 21.6165 6.99496C21.615 7.18085 21.5777 7.36456 21.507 7.53536C21.4362 7.70617 21.3334 7.86065 21.2044 7.9898L15.4089 14L21.2044 20.0102C21.4503 20.2742 21.5864 20.6279 21.5833 20.995C21.5803 21.362 21.4383 21.7132 21.188 21.9727C20.9377 22.2323 20.5991 22.3796 20.2451 22.3827C19.8912 22.3859 19.5501 22.2448 19.2955 21.9898L13.5 15.9796L7.70443 21.9898C7.44982 22.2448 7.1088 22.3859 6.75484 22.3827C6.40087 22.3796 6.06228 22.2323 5.81198 21.9727C5.56167 21.7132 5.4197 21.362 5.41662 20.995C5.41354 20.6279 5.54962 20.2742 5.79553 20.0102L11.5911 14L5.79553 7.9898C5.54244 7.72726 5.40027 7.37123 5.40027 7C5.40027 6.62877 5.54244 6.27274 5.79553 6.0102Z" fill="#505153"/>
</svg>
