<svg width="27" height="28" viewBox="0 0 27 28" fill="none" xmlns="http://www.w3.org/2000/svg">
<path fill-rule="evenodd" clip-rule="evenodd" d="M5.79565 6.0102C6.04881 5.74774 6.39213 5.6003 6.7501 5.6003C7.10807 5.6003 7.45139 5.74774 7.70455 6.0102L13.5001 12.0204L19.2957 6.0102C19.4202 5.87649 19.5691 5.76983 19.7339 5.69646C19.8986 5.62309 20.0757 5.58447 20.255 5.58285C20.4342 5.58124 20.612 5.61666 20.7779 5.68705C20.9438 5.75744 21.0945 5.8614 21.2213 5.99285C21.348 6.1243 21.4483 6.28061 21.5162 6.45267C21.584 6.62472 21.6182 6.80907 21.6166 6.99496C21.6151 7.18085 21.5778 7.36456 21.5071 7.53537C21.4363 7.70617 21.3335 7.86066 21.2046 7.9898L15.409 14L21.2046 20.0102C21.4505 20.2742 21.5865 20.6279 21.5835 20.995C21.5804 21.362 21.4384 21.7132 21.1881 21.9727C20.9378 22.2323 20.5992 22.3796 20.2452 22.3827C19.8913 22.3859 19.5503 22.2448 19.2957 21.9898L13.5001 15.9796L7.70455 21.9898C7.44994 22.2448 7.10893 22.3859 6.75496 22.3827C6.40099 22.3796 6.0624 22.2323 5.8121 21.9727C5.5618 21.7132 5.41982 21.362 5.41674 20.995C5.41367 20.6279 5.54974 20.2742 5.79565 20.0102L11.5912 14L5.79565 7.9898C5.54257 7.72726 5.40039 7.37123 5.40039 7C5.40039 6.62877 5.54257 6.27274 5.79565 6.0102Z" fill="#955E42"/>
</svg>
